<?xml version="1.0" encoding="UTF-8"?>
<svg id="Layer_2" data-name="Layer 2" xmlns="http://www.w3.org/2000/svg" viewBox="0 0 158 78">
  <defs>
    <style>
      .cls-1 {
        fill: #ee2542;
      }
    </style>
  </defs>
  <g id="Layer_1-2" data-name="Layer 1">
    <path class="cls-1" d="m1.03,72.93s.04-.04.06-.05l36.92-37.1v42.23H3.67c-1.65,0-3.02-.84-3.5-2.15-.39-1.05-.08-2.12.86-2.92Z"/>
    <path class="cls-1" d="m74.97,0c.43,0,.83.09,1.18.23.89.37,1.85,1.29,1.85,2.77v71.99c0,1.65-1.35,3-3,3h-35v-44.23L72.88.89c.65-.65,1.4-.88,2.09-.88Z"/>
    <path class="cls-1" d="m154.33,0h-34.33v42.23L156.92,5.12s.04-.04.06-.05c.94-.81,1.25-1.87.86-2.92-.48-1.3-1.86-2.15-3.5-2.15Z"/>
    <path class="cls-1" d="m80,74.99c0,1.48.96,2.4,1.85,2.77.9.37,2.22.39,3.27-.65l32.88-32.88V0h-35c-1.65,0-3,1.35-3,3v71.99Z"/>
  </g>
</svg>