<?xml version="1.0" encoding="UTF-8"?>
<svg id="Layer_2" data-name="Layer 2" xmlns="http://www.w3.org/2000/svg" viewBox="0 0 88 88">
  <defs>
    <style>
      .cls-1 {
        fill: none;
        stroke: #000;
        stroke-linecap: round;
        stroke-linejoin: round;
        stroke-width: 8px;
      }
    </style>
  </defs>
  <g id="Layer_1-2" data-name="Layer 1">
    <g>
      <path class="cls-1" d="m5.18,77.17l32-32c.75-.75,1.77-1.17,2.83-1.17h39.99c2.21,0,4,1.79,4,4v32c0,2.21-1.79,4-4,4H8.01c-3.56,0-5.35-4.31-2.83-6.83Z"/>
      <path class="cls-1" d="m82.82,10.83l-32,32c-.75.75-1.77,1.17-2.83,1.17H8c-2.21,0-4-1.79-4-4V8c0-2.21,1.79-4,4-4h71.99c3.56,0,5.35,4.31,2.83,6.83Z"/>
    </g>
  </g>
</svg>