<?xml version="1.0" encoding="UTF-8"?>
<svg id="Layer_2" data-name="Layer 2" xmlns="http://www.w3.org/2000/svg" viewBox="0 0 88 88">
  <defs>
    <style>
      .cls-1 {
        fill: none;
        stroke: #000;
        stroke-linecap: round;
        stroke-linejoin: round;
        stroke-width: 8px;
      }
    </style>
  </defs>
  <g id="Layer_1-2" data-name="Layer 1">
    <g>
      <path class="cls-1" d="m8,44h72c2.21,0,4,1.79,4,4h0c0,19.87-16.13,36-36,36H8c-2.21,0-4-1.79-4-4v-32c0-2.21,1.79-4,4-4Z"/>
      <path class="cls-1" d="m40,4h40c2.21,0,4,1.79,4,4v32c0,2.21-1.79,4-4,4H8c-2.21,0-4-1.79-4-4h0C4,20.13,20.13,4,40,4Z"/>
    </g>
  </g>
</svg>