<?xml version="1.0" encoding="UTF-8"?>
<svg id="Layer_2" data-name="Layer 2" xmlns="http://www.w3.org/2000/svg" viewBox="0 0 82 82">
  <defs>
    <style>
      .cls-1 {
        fill: #ee243d;
        stroke: #fff;
        stroke-linecap: round;
        stroke-linejoin: round;
        stroke-width: 2px;
      }
    </style>
  </defs>
  <g id="Layer_1-2" data-name="Layer 1">
    <g>
      <path class="cls-1" d="m5,1h36v76c0,2.21-1.79,4-4,4H5c-2.21,0-4-1.79-4-4V5C1,2.79,2.79,1,5,1Z"/>
      <path class="cls-1" d="m41,1h36c2.21,0,4,1.79,4,4v32c0,2.21-1.79,4-4,4h-36V1h0Z"/>
      <path class="cls-1" d="m41,41h36c2.21,0,4,1.79,4,4v26.34c0,3.56-4.31,5.35-6.83,2.83l-33.17-33.17Z"/>
    </g>
  </g>
</svg>