<?xml version="1.0" encoding="UTF-8"?>
<svg id="Layer_2" data-name="Layer 2" xmlns="http://www.w3.org/2000/svg" viewBox="0 0 87.77 88">
  <defs>
    <style>
      .cls-1 {
        fill: none;
        stroke: #000;
        stroke-linecap: round;
        stroke-linejoin: round;
        stroke-width: 8px;
      }
    </style>
  </defs>
  <g id="Layer_1-2" data-name="Layer 1">
    <g>
      <path class="cls-1" d="m69.28,18.7c1.67-1.67,1.55-4.45-.3-5.93-7.35-5.89-16.82-9.24-27.08-8.72C21.89,5.07,5.49,21.12,4.09,41.12c0,0,0,.02,0,.03-.11,1.55,1.17,2.86,2.72,2.86h36.04c.73,0,1.43-.29,1.95-.81l24.49-24.49Z"/>
      <path class="cls-1" d="m79.76,44H4c0,22.09,17.9,40,39.99,40,20.6,0,37.57-15.58,39.76-35.59.26-2.35-1.62-4.41-3.99-4.41Z"/>
    </g>
  </g>
</svg>