<?xml version="1.0" encoding="UTF-8"?>
<svg id="Layer_2" data-name="Layer 2" xmlns="http://www.w3.org/2000/svg" viewBox="0 0 88 88">
  <defs>
    <style>
      .cls-1 {
        fill: none;
        stroke: #000;
        stroke-linecap: round;
        stroke-linejoin: round;
        stroke-width: 8px;
      }
    </style>
  </defs>
  <g id="Layer_1-2" data-name="Layer 1">
    <g>
      <path class="cls-1" d="m44,44h36c2.21,0,4,1.79,4,4v32c0,2.21-1.79,4-4,4h-32c-2.21,0-4-1.79-4-4v-36h0Z"/>
      <path class="cls-1" d="m44,4h4c19.87,0,36,16.13,36,36h0c0,2.21-1.79,4-4,4h-36V4h0Z"/>
      <path class="cls-1" d="m44,4h0v40H4C4,21.92,21.92,4,44,4Z"/>
      <path class="cls-1" d="m4,44h40v36c0,2.21-1.79,4-4,4h0c-19.87,0-36-16.13-36-36v-4h0Z"/>
    </g>
  </g>
</svg>