<?xml version="1.0" encoding="UTF-8"?>
<svg id="Layer_2" data-name="Layer 2" xmlns="http://www.w3.org/2000/svg" viewBox="0 0 82 82">
  <defs>
    <style>
      .cls-1 {
        fill: #ee243d;
        stroke: #fff;
        stroke-linecap: round;
        stroke-linejoin: round;
        stroke-width: 2px;
      }
    </style>
  </defs>
  <g id="Layer_1-2" data-name="Layer 1">
    <g>
      <path class="cls-1" d="m47.83,79.82l32-32c.75-.75,1.17-1.77,1.17-2.83V5c0-2.21-1.79-4-4-4h-32c-2.21,0-4,1.79-4,4v71.99c0,3.56,4.31,5.35,6.83,2.83Z"/>
      <path class="cls-1" d="m34.17,79.82L2.17,47.82c-.75-.75-1.17-1.77-1.17-2.83V5c0-2.21,1.79-4,4-4h32c2.21,0,4,1.79,4,4v71.99c0,3.56-4.31,5.35-6.83,2.83Z"/>
    </g>
  </g>
</svg>