<?xml version="1.0" encoding="UTF-8"?>
<svg id="Layer_2" data-name="Layer 2" xmlns="http://www.w3.org/2000/svg" viewBox="0 0 82 82">
  <defs>
    <style>
      .cls-1 {
        fill: #ee243d;
        stroke: #fff;
        stroke-linecap: round;
        stroke-linejoin: round;
        stroke-width: 2px;
      }
    </style>
  </defs>
  <g id="Layer_1-2" data-name="Layer 1">
    <g>
      <path class="cls-1" d="m2.18,74.17l32-32c.75-.75,1.77-1.17,2.83-1.17h39.99c2.21,0,4,1.79,4,4v32c0,2.21-1.79,4-4,4H5.01c-3.56,0-5.35-4.31-2.83-6.83Z"/>
      <path class="cls-1" d="m79.82,7.83l-32,32c-.75.75-1.77,1.17-2.83,1.17H5c-2.21,0-4-1.79-4-4V5C1,2.79,2.79,1,5,1h71.99c3.56,0,5.35,4.31,2.83,6.83Z"/>
    </g>
  </g>
</svg>