<?xml version="1.0" encoding="UTF-8"?>
<svg id="Layer_2" data-name="Layer 2" xmlns="http://www.w3.org/2000/svg" viewBox="0 0 82 82">
  <defs>
    <style>
      .cls-1 {
        fill: #ee243d;
        stroke: #fff;
        stroke-linecap: round;
        stroke-linejoin: round;
        stroke-width: 2px;
      }
    </style>
  </defs>
  <g id="Layer_1-2" data-name="Layer 1">
    <g>
      <path class="cls-1" d="m5,41h72c2.21,0,4,1.79,4,4h0c0,19.87-16.13,36-36,36H5c-2.21,0-4-1.79-4-4v-32c0-2.21,1.79-4,4-4Z"/>
      <path class="cls-1" d="m37,1h40c2.21,0,4,1.79,4,4v32c0,2.21-1.79,4-4,4H5c-2.21,0-4-1.79-4-4h0C1,17.13,17.13,1,37,1Z"/>
    </g>
  </g>
</svg>