<?xml version="1.0" encoding="UTF-8"?>
<svg id="Layer_2" data-name="Layer 2" xmlns="http://www.w3.org/2000/svg" viewBox="0 0 194.65 194.65">
  <defs>
    <style>
      .cls-1 {
        fill: #fff;
      }

      .cls-2 {
        fill: #ee243d;
      }
    </style>
  </defs>
  <g id="Layer_1-2" data-name="Layer 1">
    <circle class="cls-2" cx="97.33" cy="97.33" r="97.31"/>
    <g>
      <path class="cls-1" d="m37.48,124.28l.72-.11c1.7-.27,2.87-.79,3.51-1.57.64-.78,1.01-1.83,1.11-3.15l1.46-27.53c.04-.69.03-1.21-.03-1.55-.23-1.45-1.65-1.97-4.27-1.56l-.69.11.12-2.36,15.82-2.49-.12,2.36-.72.11c-1.72.27-2.9.77-3.54,1.5-.65.73-1.01,1.73-1.08,3.01l-1.68,31.13,10.7-1.68c2.78-.44,4.46-2.38,5.04-5.82l.79-4.29,2.81-.44-.98,12.12-29.09,4.58.12-2.36Z"/>
      <path class="cls-1" d="m89.09,78.74l-.12,2.36-.72.11c-1.73.27-2.93.8-3.59,1.57-.66.77-1.02,1.83-1.08,3.16l-1.43,27.53c-.04.79-.04,1.3,0,1.55.23,1.45,1.65,1.97,4.27,1.56l.69-.11-.12,2.36-15.82,2.49.07-2.35.72-.11c3.01-.47,4.58-2.05,4.72-4.74l1.46-27.53c.04-.69.03-1.21-.03-1.55-.23-1.45-1.65-1.97-4.27-1.56l-.69.11.12-2.36,15.82-2.49Z"/>
      <path class="cls-1" d="m108.39,110c.85-3.34,1.85-6.55,3-9.61l6.94-18.8c.49-1.35.68-2.42.55-3.21-.2-1.29-1.31-1.78-3.33-1.46l-1.25.2.07-2.35,13.43-2.11-.14,2.36-1.04.16c-1.22.19-2.09.65-2.6,1.36-.51.72-1.09,1.93-1.72,3.64l-13.02,35.14-3.95.62-9.94-32.92c-.31-1.06-.73-1.76-1.24-2.1-.52-.34-1.33-.43-2.45-.25l-.72.11.12-2.36,14.78-2.33-.07,2.35-1.25.2c-1.17.18-2.08.58-2.72,1.18-.65.6-.91,1.34-.77,2.2.1.62.24,1.23.42,1.84l4.93,17.31c.85,2.98,1.5,5.93,1.96,8.83Z"/>
      <path class="cls-1" d="m138.58,107.94l10.48-1.65c3.06-.48,4.88-2.29,5.46-5.43l.48-2.47,2.84-.45-.89,9.88-29.14,4.58.07-2.35.72-.11c1.84-.29,3.07-.81,3.68-1.57.62-.76.96-1.72,1.03-2.89l1.45-27.59c.03-.51.01-.95-.05-1.33-.13-.85-.48-1.46-1.05-1.82s-1.63-.42-3.18-.18l-.69.11.12-2.36,27.39-4.31-.23,9.77-2.84.45-.1-1.7c-.05-.86-.08-1.37-.1-1.51-.38-2.42-1.86-3.43-4.45-3.03l-9.13,1.44-.83,14.95,13.11-2.06-.11,2.74-13.11,2.06-.92,16.81Z"/>
    </g>
  </g>
</svg>