<?xml version="1.0" encoding="utf-8"?>
<!-- Generator: Adobe Illustrator 27.0.0, SVG Export Plug-In . SVG Version: 6.00 Build 0)  -->
<svg version="1.1" id="Layer_1" xmlns="http://www.w3.org/2000/svg" xmlns:xlink="http://www.w3.org/1999/xlink" x="0px" y="0px"
	 viewBox="0 0 48 48" style="enable-background:new 0 0 48 48;" xml:space="preserve">
<style type="text/css">
	.st0{fill:#DBE2E8;}
</style>
<path class="st0" d="M38.2,43.9c-0.2,0-0.4,0-0.5-0.1s-0.3-0.2-0.5-0.3L25.9,32.3v-3.8l2.5-2.5h3.8l11.2,11.2
	c0.2,0.2,0.3,0.3,0.3,0.5c0,0.2,0.1,0.3,0.1,0.5c0,0.2,0,0.4-0.1,0.5c-0.1,0.2-0.2,0.3-0.3,0.5l-4.2,4.2c-0.2,0.2-0.3,0.3-0.5,0.3
	S38.4,43.9,38.2,43.9z M38.2,40.4l2.2-2.2l-10-10l-2.1,2.1L38.2,40.4z M9.8,44c-0.2,0-0.4,0-0.6-0.1c-0.2-0.1-0.4-0.2-0.5-0.3
	l-4.2-4.2c-0.2-0.2-0.3-0.3-0.3-0.5S4,38.4,4,38.2s0-0.4,0.1-0.5c0.1-0.2,0.2-0.3,0.3-0.5l11.2-11.2H20l1.9-1.9l-8.8-8.7h-2.9L4,9
	l4.9-5l6.2,6.3v2.9l8.8,8.7l6.5-6.5l-3.4-3.4l2.8-2.8h-5.6l-0.9-0.9L29.8,2l0.9,0.9v5.7l2.8-2.8l8.5,8.5c0.5,0.5,0.9,1.1,1.2,1.7
	c0.3,0.7,0.4,1.3,0.4,2.1c0,0.6-0.1,1.3-0.3,1.9c-0.2,0.6-0.5,1.2-1,1.7L38,17.3l-2.8,2.8l-2.6-2.6L22,28.1v4.2L10.8,43.5
	c-0.2,0.2-0.3,0.3-0.5,0.3C10.1,44,9.9,44,9.8,44z M9.8,40.4l10-10l-2.1-2.1l-10,10L9.8,40.4z"/>
</svg>
