<?xml version="1.0" encoding="utf-8"?>
<!-- Generator: Adobe Illustrator 27.0.0, SVG Export Plug-In . SVG Version: 6.00 Build 0)  -->
<svg version="1.1" id="Layer_1" xmlns="http://www.w3.org/2000/svg" xmlns:xlink="http://www.w3.org/1999/xlink" x="0px" y="0px"
	 viewBox="0 0 48 48" style="enable-background:new 0 0 48 48;" xml:space="preserve">
<style type="text/css">
	.st0{fill:#DBE2E8;}
</style>
<path class="st0" d="M7,39V14.3V39z M7,42c-0.8,0-1.5-0.3-2.1-0.9C4.3,40.5,4,39.8,4,39V14.3c0-0.8,0.3-1.5,0.9-2.1
	c0.6-0.6,1.3-0.9,2.1-0.9h9.5V7c0-0.8,0.3-1.5,0.9-2.1S18.7,4,19.5,4h9c0.8,0,1.5,0.3,2.1,0.9s0.9,1.3,0.9,2.1v4.4H41
	c0.8,0,1.5,0.3,2.1,0.9c0.6,0.6,0.9,1.3,0.9,2.1v11.9c-0.5-0.4-0.9-0.7-1.4-1s-1-0.6-1.6-0.9v-10H7V39l0,0h16.7
	c0.1,0.5,0.3,1,0.5,1.5s0.4,1,0.7,1.5H7z M19.5,11.3h9V7h-9V11.3z M36,45.6c-2.6,0-4.9-1-6.8-2.8s-2.9-4.2-2.9-6.8s1-4.9,2.9-6.8
	s4.2-2.9,6.8-2.9s4.9,0.9,6.8,2.9c1.9,1.9,2.8,4.2,2.8,6.8s-1,4.9-2.8,6.8C40.9,44.7,38.6,45.6,36,45.6z M39.7,41l1.3-1.3l-4.2-3.8
	v-6.2h-2.1v6.8L39.7,41z"/>
</svg>
